<svg width="138" height="34" viewBox="0 0 138 34" fill="none" xmlns="http://www.w3.org/2000/svg">
<g filter="url(#filter0_d_42_21)">
<path fill-rule="evenodd" clip-rule="evenodd" d="M14.9645 9.4359C14.632 9.4359 14.3089 9.47693 14 9.55416C14.1988 7.76058 14.9148 6.12398 15.9963 4.79492C20.2971 5.30464 23.6332 8.96455 23.6332 13.4029V19.7294C23.4605 19.7391 23.2864 19.744 23.1112 19.744C19.6706 19.744 16.6709 17.8483 15.1028 15.0423H18.9315V13.4029C18.9315 11.212 17.1554 9.4359 14.9645 9.4359Z" fill="white"/>
<path fill-rule="evenodd" clip-rule="evenodd" d="M4.25642 13.9507C4.25642 8.62496 8.57377 4.30762 13.8995 4.30762C16.5623 4.30762 18.9731 5.38695 20.7182 7.132C19.1095 5.52336 16.9351 4.48044 14.5191 4.32724C12.894 6.12575 11.9044 8.50947 11.9044 11.1243C11.9044 11.3194 11.9099 11.5131 11.9208 11.7055C11.299 12.2538 10.9068 13.0565 10.9068 13.9507V14.6157H16.8922L12.5214 14.6158C13.9445 18.4968 17.672 21.2661 22.0462 21.2661C22.5546 21.2661 23.0543 21.2287 23.5425 21.1565V25.2563H16.8922V21.2661H10.9068V25.2563H4.25642V17.9409V13.9507Z" fill="white"/>
<path d="M45.726 17.862C45.726 16.63 45.968 15.5373 46.452 14.584C46.9507 13.6307 47.618 12.8973 48.454 12.384C49.3047 11.8707 50.2507 11.614 51.292 11.614C52.2013 11.614 52.9933 11.7973 53.668 12.164C54.3573 12.5307 54.9073 12.9927 55.318 13.55V11.812H58.42V24H55.318V22.218C54.922 22.79 54.372 23.2667 53.668 23.648C52.9787 24.0147 52.1793 24.198 51.27 24.198C50.2433 24.198 49.3047 23.934 48.454 23.406C47.618 22.878 46.9507 22.1373 46.452 21.184C45.968 20.216 45.726 19.1087 45.726 17.862ZM55.318 17.906C55.318 17.158 55.1713 16.52 54.878 15.992C54.5847 15.4493 54.1887 15.0387 53.69 14.76C53.1913 14.4667 52.656 14.32 52.084 14.32C51.512 14.32 50.984 14.4593 50.5 14.738C50.016 15.0167 49.62 15.4273 49.312 15.97C49.0187 16.498 48.872 17.1287 48.872 17.862C48.872 18.5953 49.0187 19.2407 49.312 19.798C49.62 20.3407 50.016 20.7587 50.5 21.052C50.9987 21.3453 51.5267 21.492 52.084 21.492C52.656 21.492 53.1913 21.3527 53.69 21.074C54.1887 20.7807 54.5847 20.37 54.878 19.842C55.1713 19.2993 55.318 18.654 55.318 17.906ZM68.1822 11.636C69.6342 11.636 70.8075 12.098 71.7022 13.022C72.5968 13.9313 73.0442 15.2073 73.0442 16.85V24H69.9642V17.268C69.9642 16.3 69.7222 15.5593 69.2382 15.046C68.7542 14.518 68.0942 14.254 67.2582 14.254C66.4075 14.254 65.7328 14.518 65.2342 15.046C64.7502 15.5593 64.5082 16.3 64.5082 17.268V24H61.4282V11.812H64.5082V13.33C64.9188 12.802 65.4395 12.3913 66.0702 12.098C66.7155 11.79 67.4195 11.636 68.1822 11.636ZM79.5591 14.342V20.238C79.5591 20.6487 79.6544 20.9493 79.8451 21.14C80.0504 21.316 80.3877 21.404 80.8571 21.404H82.2871V24H80.3511C77.7551 24 76.4571 22.7387 76.4571 20.216V14.342H75.0051V11.812H76.4571V8.798H79.5591V11.812H82.2871V14.342H79.5591ZM89.9144 24.198C88.741 24.198 87.685 23.9413 86.7464 23.428C85.8077 22.9 85.067 22.1593 84.5244 21.206C83.9964 20.2527 83.7324 19.1527 83.7324 17.906C83.7324 16.6593 84.0037 15.5593 84.5464 14.606C85.1037 13.6527 85.859 12.9193 86.8124 12.406C87.7657 11.878 88.829 11.614 90.0024 11.614C91.1757 11.614 92.239 11.878 93.1924 12.406C94.1457 12.9193 94.8937 13.6527 95.4364 14.606C95.9937 15.5593 96.2724 16.6593 96.2724 17.906C96.2724 19.1527 95.9864 20.2527 95.4144 21.206C94.857 22.1593 94.0944 22.9 93.1264 23.428C92.173 23.9413 91.1024 24.198 89.9144 24.198ZM89.9144 21.514C90.4717 21.514 90.9924 21.382 91.4764 21.118C91.975 20.8393 92.371 20.4287 92.6644 19.886C92.9577 19.3433 93.1044 18.6833 93.1044 17.906C93.1044 16.7473 92.7964 15.86 92.1804 15.244C91.579 14.6133 90.8384 14.298 89.9584 14.298C89.0784 14.298 88.3377 14.6133 87.7364 15.244C87.1497 15.86 86.8564 16.7473 86.8564 17.906C86.8564 19.0647 87.1424 19.9593 87.7144 20.59C88.301 21.206 89.0344 21.514 89.9144 21.514ZM103.944 24.198C102.77 24.198 101.714 23.9413 100.776 23.428C99.837 22.9 99.0963 22.1593 98.5537 21.206C98.0257 20.2527 97.7617 19.1527 97.7617 17.906C97.7617 16.6593 98.033 15.5593 98.5757 14.606C99.133 13.6527 99.8883 12.9193 100.842 12.406C101.795 11.878 102.858 11.614 104.032 11.614C105.205 11.614 106.268 11.878 107.222 12.406C108.175 12.9193 108.923 13.6527 109.466 14.606C110.023 15.5593 110.302 16.6593 110.302 17.906C110.302 19.1527 110.016 20.2527 109.444 21.206C108.886 22.1593 108.124 22.9 107.156 23.428C106.202 23.9413 105.132 24.198 103.944 24.198ZM103.944 21.514C104.501 21.514 105.022 21.382 105.506 21.118C106.004 20.8393 106.4 20.4287 106.694 19.886C106.987 19.3433 107.134 18.6833 107.134 17.906C107.134 16.7473 106.826 15.86 106.21 15.244C105.608 14.6133 104.868 14.298 103.988 14.298C103.108 14.298 102.367 14.6133 101.766 15.244C101.179 15.86 100.886 16.7473 100.886 17.906C100.886 19.0647 101.172 19.9593 101.744 20.59C102.33 21.206 103.064 21.514 103.944 21.514ZM115.641 7.72V24H112.561V7.72H115.641ZM123.348 24.198C122.351 24.198 121.456 24.022 120.664 23.67C119.872 23.3033 119.241 22.812 118.772 22.196C118.317 21.58 118.068 20.898 118.024 20.15H121.126C121.185 20.6193 121.412 21.008 121.808 21.316C122.219 21.624 122.725 21.778 123.326 21.778C123.913 21.778 124.367 21.6607 124.69 21.426C125.027 21.1913 125.196 20.8907 125.196 20.524C125.196 20.128 124.991 19.8347 124.58 19.644C124.184 19.4387 123.546 19.2187 122.666 18.984C121.757 18.764 121.009 18.5367 120.422 18.302C119.85 18.0673 119.351 17.708 118.926 17.224C118.515 16.74 118.31 16.0873 118.31 15.266C118.31 14.5913 118.501 13.9753 118.882 13.418C119.278 12.8607 119.835 12.4207 120.554 12.098C121.287 11.7753 122.145 11.614 123.128 11.614C124.58 11.614 125.739 11.9807 126.604 12.714C127.469 13.4327 127.946 14.408 128.034 15.64H125.086C125.042 15.156 124.837 14.7747 124.47 14.496C124.118 14.2027 123.641 14.056 123.04 14.056C122.483 14.056 122.05 14.1587 121.742 14.364C121.449 14.5693 121.302 14.8553 121.302 15.222C121.302 15.6327 121.507 15.948 121.918 16.168C122.329 16.3733 122.967 16.586 123.832 16.806C124.712 17.026 125.438 17.2533 126.01 17.488C126.582 17.7227 127.073 18.0893 127.484 18.588C127.909 19.072 128.129 19.7173 128.144 20.524C128.144 21.228 127.946 21.8587 127.55 22.416C127.169 22.9733 126.611 23.4133 125.878 23.736C125.159 24.044 124.316 24.198 123.348 24.198ZM132.036 24.154C131.479 24.154 131.017 23.9853 130.65 23.648C130.298 23.296 130.122 22.8633 130.122 22.35C130.122 21.8367 130.298 21.4113 130.65 21.074C131.017 20.722 131.479 20.546 132.036 20.546C132.579 20.546 133.026 20.722 133.378 21.074C133.73 21.4113 133.906 21.8367 133.906 22.35C133.906 22.8633 133.73 23.296 133.378 23.648C133.026 23.9853 132.579 24.154 132.036 24.154Z" fill="white" fill-opacity="0.9"/>
</g>
<defs>
<filter id="filter0_d_42_21" x="0.256424" y="4.30762" width="137.65" height="28.9487" filterUnits="userSpaceOnUse" color-interpolation-filters="sRGB">
<feFlood flood-opacity="0" result="BackgroundImageFix"/>
<feColorMatrix in="SourceAlpha" type="matrix" values="0 0 0 0 0 0 0 0 0 0 0 0 0 0 0 0 0 0 127 0" result="hardAlpha"/>
<feOffset dy="4"/>
<feGaussianBlur stdDeviation="2"/>
<feComposite in2="hardAlpha" operator="out"/>
<feColorMatrix type="matrix" values="0 0 0 0 0 0 0 0 0 0 0 0 0 0 0 0 0 0 0.25 0"/>
<feBlend mode="normal" in2="BackgroundImageFix" result="effect1_dropShadow_42_21"/>
<feBlend mode="normal" in="SourceGraphic" in2="effect1_dropShadow_42_21" result="shape"/>
</filter>
</defs>
</svg>
